<?xml version="1.0" encoding="utf-8"?>
<svg version="1.1" xmlns="http://www.w3.org/2000/svg" xmlns:xlink="http://www.w3.org/1999/xlink" x="0px" y="0px"
	 viewBox="0 0 128 128" style="enable-background:new 0 0 128 128;" xml:space="preserve">
<style type="text/css">
	.st0{fill:#691610;stroke:#4E1412;stroke-width:2;stroke-miterlimit:10;}
	.st1{fill:#FDB913;stroke:#B54126;stroke-miterlimit:10;}
	.st2{fill:#7BB542;stroke:#1C2614;stroke-miterlimit:10;}
</style>
<g id="Layer_8">
	<path id="XMLID_25_" class="st0" d="M94.8,31.3H52.3c-12.2,0-22.1,9.9-22.1,21.9v42.1c0,12,10,21.9,22.1,21.9h42.5
		c12.2,0,22.1-9.9,22.1-21.9V53.2C116.9,41.2,107,31.3,94.8,31.3z M112.8,91.1c0,12-10,21.9-22.1,21.9H56.5
		c-12.2,0-22.1-9.9-22.1-21.9V57.3c0-12,10-21.9,22.1-21.9h34.2c12.2,0,22.1,9.9,22.1,21.9V91.1z" />
</g>
<g id="Layer_7">
	<path id="XMLID_42_" class="st1" d="M88.2,48v-7.4l-8.8-2c-0.4-2.2-1-4.2-1.8-6.2l6.4-6l-3.7-6.4l-8.6,2.6c-1.4-1.6-3-3.1-4.7-4.5
		l2.6-8.3L63,6l-6.2,6.5c-2-0.7-4.2-1.2-6.3-1.5l-2-8.5H41l-2.1,8.7c-2.2,0.4-4.3,1-6.3,1.8l-6-6.4l-6.5,3.7l2.6,8.6
		c-1.7,1.4-3.2,3-4.5,4.7L9.8,21l-3.7,6.4l6.6,6.1c-0.7,2-1.2,4.1-1.6,6.3l-8.6,2v7.4l8.8,2c0.4,2.2,1,4.2,1.8,6.2l-6.4,6l3.7,6.4
		l8.6-2.6c1.4,1.6,3,3.1,4.7,4.5l-2.6,8.3l6.5,3.7l6.2-6.5c2,0.7,4.2,1.2,6.3,1.5l2,8.5h7.5l2.1-8.7c2.2-0.4,4.3-1,6.3-1.8l6,6.4
		l6.5-3.7l-2.6-8.6c1.7-1.4,3.2-3,4.5-4.7l8.4,2.5l3.7-6.4L78,56.2c0.7-2,1.2-4.1,1.6-6.3L88.2,48z M26,44.9
		c0-10.6,8.7-19.1,19.3-19.1s19.3,8.6,19.3,19.1c0,10.6-8.7,19.1-19.3,19.1S26,55.5,26,44.9z" />
</g>
<g id="Layer_6">
	<path id="XMLID_20_" class="st2" d="M125.5,91.5l-1.4-6.7l-8.2-0.2c-0.9-2-2-3.8-3.3-5.4l3.6-7.5l-5.4-4.3l-6.5,5.1
		c-1.9-0.9-3.9-1.6-6-2.1l-2.1-8l-7,0.2l-1.7,8c-2.1,0.5-4.1,1.3-5.9,2.2L74.7,68l-5.2,4.6l4,7.2c-1.3,1.7-2.3,3.5-3.1,5.5L62,86
		l-1,6.8l7.7,3c0.1,1.1,0.2,2.3,0.5,3.5c0.2,0.9,0.4,1.8,0.7,2.7l-6,5.8l3.6,5.9l7.8-2.6c1.5,1.5,3.1,2.9,5,4l-0.8,8.2l6.6,2.2
		l4.3-6.9c2.1,0.2,4.3,0.2,6.4-0.1l4.7,6.8l6.5-2.5l-1.2-8c1.8-1.2,3.5-2.6,4.9-4.2l8,2.2l3.3-6.1l-6.1-5.4c0.6-2,1-4.1,1-6.3
		L125.5,91.5z" />
</g>
</svg>
