<?xml version="1.0" encoding="utf-8"?>
<svg version="1.1" xmlns="http://www.w3.org/2000/svg" xmlns:xlink="http://www.w3.org/1999/xlink" x="0px" y="0px"
	 viewBox="0 0 1028 1028" style="enable-background:new 0 0 1028 1028;" xml:space="preserve">
<style type="text/css">
	.st0{fill:none;stroke:#000000;stroke-width:40;stroke-miterlimit:10;}
	.st1{fill:#FDB913;stroke:#B54126;stroke-width:5;stroke-miterlimit:10;}
	.st2{fill:#7BB542;stroke:#1C2614;stroke-width:5;stroke-miterlimit:10;}
</style>
<g id="Layer_1_copy">
	<g id="Layer_2">
		<path id="XMLID_1_" class="st0" d="M778.4,989.4H506.8c-116.6,0-212-95.4-212-212V505.9c0-116.6,95.4-212,212-212h271.6
			c116.6,0,212,95.4,212,212v271.6C990.4,894,895,989.4,778.4,989.4z"/>
	</g>
</g>
<g id="Layer_7">
	<path id="XMLID_49_" class="st1" d="M707.7,406.4v-55.1L643,336.2c-3-16-7.5-31.5-13.3-46.3l47.2-44.2L649.3,198l-63.6,19.3
		c-10.5-12.2-22.1-23.3-34.7-33.3l18.8-62l-47.7-27.6l-45.4,48.5c-15-5.2-30.6-9.1-46.7-11.5l-14.7-63.1h-55.1L345,133
		c-16,3-31.5,7.5-46.3,13.3l-44.2-47.2l-47.7,27.6l19.3,63.6c-12.2,10.5-23.3,22.1-33.3,34.7l-62-18.8l-27.6,47.7l48.5,45.4
		c-5.2,15-9.1,30.6-11.5,46.7L77,360.7v55.1l64.7,15.1c3,16,7.5,31.5,13.3,46.3l-47.2,44.2l27.6,47.7l63.6-19.3
		c10.5,12.2,22.1,23.3,34.7,33.3l-18.8,62l47.7,27.6l45.4-48.5c15,5.2,30.6,9.1,46.7,11.5l14.7,63.1h55.1l15.1-64.7
		c16-3,31.5-7.5,46.3-13.3l44.2,47.2l47.7-27.6l-19.3-63.6c12.2-10.5,23.3-22.1,33.3-34.7l62,18.8l27.6-47.7l-48.5-45.4
		c5.2-15,9.1-30.6,11.5-46.7L707.7,406.4z M250,383.6c0-78.6,63.7-142.4,142.4-142.4S534.7,305,534.7,383.6
		c0,78.6-63.7,142.4-142.4,142.4S250,462.2,250,383.6z"/>
</g>
<g id="Layer_6">
	<path id="XMLID_20_" class="st2" d="M982.4,730.2L972.1,680l-60.3-1.6c-6.4-14.7-14.6-28.3-24.4-40.5l26.2-55.5l-40.1-31.8
		L826,588.4c-14-6.9-28.9-12.1-44.3-15.3l-15.7-59.7l-51.2,1.4l-12.2,59.7c-15.5,3.7-30.1,9.4-43.6,16.7l-50.6-35.8l-38.3,34
		l29.1,53.7c-9.2,12.5-16.9,26.2-22.7,40.7l-61.7,5.1l-7.5,50.6l56.6,22.3c0.5,8.5,1.6,17.1,3.4,25.7c1.4,6.9,3.2,13.7,5.4,20.3
		l-43.9,43.5l26.8,43.6l57.5-19.2c10.9,11.5,23.1,21.5,36.5,29.8l-5.6,61.2l48.6,16.2l31.5-51.4c15.5,1.8,31.4,1.6,47.4-0.7
		l34.9,50.3l47.6-18.8l-8.8-59.4c13.4-8.8,25.5-19.4,36-31.2l58.9,16.1l24.3-45l-45-39.9c4.5-15.1,7-30.8,7.5-46.9L982.4,730.2z"/>
</g>
</svg>
